<svg width="49" height="48" viewBox="0 0 49 48" fill="none" xmlns="http://www.w3.org/2000/svg">
<ellipse cx="24.9111" cy="24" rx="23.9407" ry="24" fill="#38C5F4"/>
<path d="M25.6676 34.5931C31.1542 34.1787 35.4774 29.5846 35.4774 23.9784C35.4774 18.0993 30.7232 13.3333 24.8585 13.3333C18.9939 13.3333 14.2397 18.0993 14.2397 23.9784C14.2397 25.3485 14.4979 26.6581 14.9682 27.861" stroke="white" stroke-width="1.33333" stroke-linecap="round"/>
<ellipse cx="24.8585" cy="23.9784" rx="7.3826" ry="7.40087" fill="white"/>
<path d="M17.6782 32.9L19.3975 27.6282L23.2405 29.7572L17.6782 32.9Z" fill="white"/>
<ellipse cx="24.6563" cy="34.5221" rx="1.51697" ry="1.52073" fill="white"/>
<path fill-rule="evenodd" clip-rule="evenodd" d="M15.0389 19.9195C13.0791 20.3427 11.6104 22.09 11.6104 24.1812C11.6104 26.3409 13.177 28.1338 15.2332 28.4801C14.5958 27.1128 14.2397 25.5873 14.2397 23.9784C14.2397 22.5411 14.5239 21.1703 15.0389 19.9195Z" fill="white"/>
<path fill-rule="evenodd" clip-rule="evenodd" d="M34.6603 19.9195C36.6201 20.3427 38.0889 22.09 38.0889 24.1812C38.0889 26.3409 36.5222 28.1338 34.466 28.4801C35.1034 27.1128 35.4595 25.5873 35.4595 23.9784C35.4595 22.5411 35.1753 21.1703 34.6603 19.9195Z" fill="white"/>
<path d="M42.8663 9.5C45.3473 9.5 47.3565 7.48412 47.3565 5C47.3565 2.51588 45.3473 0.5 42.8663 0.5C40.3854 0.5 38.3762 2.51588 38.3762 5C38.3762 7.48412 40.3854 9.5 42.8663 9.5Z" fill="#00AD50" stroke="white"/>
</svg>
