<svg width="124" height="97" viewBox="0 0 124 97" fill="none" xmlns="http://www.w3.org/2000/svg">
<rect width="124" height="97" rx="8" fill="white"/>
<path fill-rule="evenodd" clip-rule="evenodd" d="M29.7272 71.6233C29.7272 71.3471 29.5033 71.1233 29.2272 71.1233C28.951 71.1233 28.7272 71.3471 28.7272 71.6233V73.7598H26.5C26.2239 73.7598 26 73.9836 26 74.2598C26 74.5359 26.2239 74.7598 26.5 74.7598H28.7272V76.9873C28.7272 77.2634 28.951 77.4873 29.2272 77.4873C29.5033 77.4873 29.7272 77.2634 29.7272 76.9873V74.7598H31.864C32.1401 74.7598 32.364 74.5359 32.364 74.2598C32.364 73.9836 32.1401 73.7598 31.864 73.7598H29.7272V71.6233Z" fill="#00AD50"/>
<path fill-rule="evenodd" clip-rule="evenodd" d="M94.7275 15C94.7275 14.7239 94.5036 14.5 94.2275 14.5C93.9513 14.5 93.7275 14.7239 93.7275 15V17.1366H91.5C91.2239 17.1366 91 17.3605 91 17.6366C91 17.9127 91.2239 18.1366 91.5 18.1366H93.7275V20.364C93.7275 20.6401 93.9513 20.864 94.2275 20.864C94.5036 20.864 94.7275 20.6401 94.7275 20.364V18.1366H96.864C97.1401 18.1366 97.364 17.9127 97.364 17.6366C97.364 17.3605 97.1401 17.1366 96.864 17.1366H94.7275V15Z" fill="#00AD50"/>
<path fill-rule="evenodd" clip-rule="evenodd" d="M100.558 12C100.558 11.7239 100.334 11.5 100.058 11.5C99.7816 11.5 99.5578 11.7239 99.5578 12V12.5778H98.5C98.2239 12.5778 98 12.8017 98 13.0778C98 13.3539 98.2239 13.5778 98.5 13.5778H99.5578V14.636C99.5578 14.9121 99.7816 15.136 100.058 15.136C100.334 15.136 100.558 14.9121 100.558 14.636V13.5778H101.136C101.412 13.5778 101.636 13.3539 101.636 13.0778C101.636 12.8017 101.412 12.5778 101.136 12.5778H100.558V12Z" fill="#00AD50"/>
<path fill-rule="evenodd" clip-rule="evenodd" d="M89.1361 80C89.1361 79.7239 88.9123 79.5 88.6361 79.5C88.36 79.5 88.1361 79.7239 88.1361 80V81.3497H86.5C86.2239 81.3497 86 81.5736 86 81.8497C86 82.1259 86.2239 82.3497 86.5 82.3497H88.1361V83.9873C88.1361 84.2634 88.36 84.4873 88.6361 84.4873C88.9123 84.4873 89.1361 84.2634 89.1361 83.9873V82.3497H90.4873C90.7634 82.3497 90.9873 82.1259 90.9873 81.8497C90.9873 81.5736 90.7634 81.3497 90.4873 81.3497H89.1361V80Z" fill="#00AD50"/>
<circle cx="20.6517" cy="33.775" r="2.15167" stroke="#CFFFFC"/>
<circle cx="37.648" cy="20.0157" r="4.273" stroke="#CFFFFC"/>
<circle cx="101.773" cy="55.273" r="4.273" stroke="#CFFFFC"/>
<path d="M44.5429 16.941C50.3467 13.1824 57.2663 11 64.6956 11C85.1983 11 101.819 27.6207 101.819 48.1234C101.819 48.4781 101.814 48.8317 101.804 49.184M34.2263 26.91C30.032 32.9231 27.5723 40.236 27.5723 48.1234C27.5723 68.626 44.193 85.2467 64.6956 85.2467C80.3258 85.2467 93.6999 75.5871 99.1739 61.912" stroke="#FF6A39" stroke-linecap="round"/>
<path d="M84.4465 25.7074C83.0157 22.6866 80.9807 19.9521 78.5005 17.7051C78.1719 17.4084 77.6738 17.4402 77.377 17.7581C77.0802 18.0867 77.112 18.5848 77.43 18.8816C79.7618 20.9908 81.659 23.5452 83.0051 26.3857C83.1958 26.7885 83.6728 26.9474 84.065 26.7673C84.4677 26.5871 84.6373 26.1101 84.4465 25.7074Z" fill="#FF6A39"/>
<path d="M79.9632 26.8943C78.9457 24.9653 77.6315 23.1953 76.0734 21.6584C75.7554 21.351 75.2573 21.351 74.9499 21.669C74.6426 21.987 74.6426 22.4851 74.9605 22.7925C76.402 24.2022 77.6209 25.845 78.5536 27.6256C78.6914 27.9012 78.9669 28.0496 79.2531 28.0496C79.8467 28.0602 80.2494 27.4349 79.9632 26.8943Z" fill="#FF6A39"/>
<path d="M35.9906 53.368C35.1874 51.8123 34.5344 50.1602 34.033 48.4759C33.5469 46.7845 33.2207 45.0386 33.0713 43.2952C33.0244 42.8082 32.5896 42.443 32.1067 42.4787C31.6197 42.5256 31.2546 42.9605 31.2903 43.4433C31.6105 47.1793 32.6779 50.8512 34.4043 54.1851C34.5062 54.3881 34.6819 54.5297 34.8824 54.6045C35.6511 54.8911 36.3677 54.0923 35.9906 53.368Z" fill="#FF6A39"/>
<path d="M40.1321 50.2285C39.1693 48.1818 38.5319 45.9773 38.2494 43.74C38.1914 43.2489 37.737 42.9018 37.2529 42.9751C36.7617 43.0331 36.4147 43.4875 36.488 43.9716C36.7819 46.3146 37.4544 48.6972 38.5248 50.9998C38.7385 51.4475 39.2622 51.6427 39.7099 51.4289C40.1506 51.1999 40.3347 50.6721 40.1321 50.2285Z" fill="#FF6A39"/>
<path d="M82.2251 64.9667L81.266 62.9543C81.5918 62.2794 82.5427 60.594 82.7415 58.051C82.9555 55.278 82.2002 54.6933 82.2355 53.08C82.3377 49.1305 85.1362 44.2456 85.6972 43.3033C85.7244 43.2682 85.7302 43.2389 85.7418 43.2311C86.9934 40.9468 87.818 39.4389 85.6049 37.7761C83.6201 36.2901 81.1254 36.7691 79.2561 39.0022C79.1376 39.1408 76.7321 42.0375 75.0953 46.3217L68.4593 32.4021C68.2792 32.0324 67.8346 31.8736 67.4649 32.0537C67.0951 32.2337 66.9363 32.6783 67.1164 33.0481L74.5296 48.62C74.8232 49.235 75.7174 49.1687 75.9185 48.5097C77.3921 43.5655 80.2737 40.1046 80.3941 39.9563C80.9091 39.3492 82.7266 37.4806 84.7113 38.9666C85.9643 39.9029 85.6338 40.2426 84.4213 42.5346C83.5885 43.9296 80.8582 48.8279 80.7547 53.0404C80.6988 55.0649 81.4573 55.3262 81.2645 57.9413C81.1889 58.9896 80.9457 60.015 80.5446 61.0193C80.4497 61.2435 79.9708 62.2831 78.7183 63.2912C78.4033 63.553 78.3517 64.0188 78.6116 64.3436C78.8714 64.6683 79.3391 64.7102 79.6639 64.4503C79.8331 64.3116 79.9925 64.171 80.1422 64.0284L80.8939 65.6048C81.3305 66.5215 80.9413 67.6193 80.0246 68.0558L78.2594 68.8917C77.6113 69.1991 77.7362 70.1554 78.4379 70.2941C78.8472 70.375 78.9616 70.1546 80.6706 69.3987C82.3035 68.6177 83.0102 66.6308 82.2251 64.9667Z" fill="#00AD50"/>
<path d="M76.0871 70.7512C75.907 70.3814 75.4625 70.2227 75.0927 70.4027L67.0002 74.2513C66.0718 74.6956 64.9565 74.2929 64.5219 73.3665C64.2912 72.9968 63.6863 70.8823 61.4119 69.6833C57.3195 67.5376 56.503 63.9838 55.848 62.9429C55.6679 62.5731 55.2233 62.4144 54.8535 62.5944C54.4838 62.7745 54.325 63.2191 54.5051 63.5889C55.1132 64.5597 56.1276 68.5983 60.7135 71.0136C62.4847 71.941 62.9229 73.6175 63.1693 74.0105C63.964 75.6765 65.9685 76.3968 67.6364 75.5923L75.7289 71.7437C76.1084 71.5656 76.2672 71.121 76.0871 70.7512Z" fill="#00AD50"/>
<path d="M67.6914 45.0406L60.6345 30.2278C60.0609 29.0308 60.609 27.5391 61.9308 27.051C63.0443 26.6433 64.3236 27.1899 64.8463 28.2856L65.6215 29.8971C65.8015 30.2668 66.2461 30.4256 66.6159 30.2455C66.9857 30.0655 67.1444 29.6209 66.9643 29.2511L66.1989 27.6416C64.8287 24.7884 60.772 24.665 59.3269 27.5186C57.6725 24.7713 53.5798 25.0864 52.4663 28.1068C52.1428 28.9746 52.1488 29.9175 52.4761 30.7721C49.3904 30.0913 46.8745 33.2902 48.2565 36.1862L49.0924 37.9515C45.9405 37.2981 43.5299 40.5279 44.8825 43.3675C45.5775 44.8214 45.8065 45.3021 45.8692 45.4461C45.877 45.4578 45.8848 45.4695 45.8829 45.4792C45.875 45.4675 45.877 45.4578 45.8672 45.4559C45.8653 45.4656 45.8731 45.4773 45.8809 45.489C46.0238 45.7906 47.0535 47.9588 52.9927 60.4342C53.1004 60.658 53.2955 60.7978 53.5197 60.8421C54.1142 60.9597 54.5999 60.3468 54.3356 59.7882C44.587 39.2787 47.261 44.9111 46.2333 42.7332C45.3445 40.8765 47.037 38.8718 48.975 39.4675C50.0356 39.7886 50.3864 40.6782 50.3942 40.6899L55.2822 50.9524C55.3898 51.1762 55.585 51.3161 55.8091 51.3604C56.4036 51.4779 56.8893 50.865 56.6251 50.3064C55.9673 48.9207 50.265 36.9377 49.6072 35.5519C49.0709 34.4231 49.477 33.0857 50.5277 32.4832C51.7128 31.8162 53.1907 32.2805 53.7701 33.4988L60.3944 47.4262C60.5021 47.65 60.6973 47.7898 60.9214 47.8341C61.0773 47.8649 61.2332 47.8451 61.3889 47.7746C61.7587 47.5946 61.9174 47.15 61.7373 46.7802C61.1501 45.5502 54.3378 31.2414 53.9522 30.4259C53.3943 29.2523 53.9055 27.8445 55.1044 27.3118C56.2372 26.8066 57.6198 27.3432 58.1718 28.4954C58.3147 28.7971 66.2721 45.5095 66.3504 45.6768C66.5305 46.0466 66.9751 46.2054 67.3449 46.0253C67.7108 45.8647 67.8598 45.4182 67.6914 45.0406ZM45.8907 45.4909C45.8985 45.5026 45.8985 45.5026 45.8907 45.4909V45.4909Z" fill="#00AD50"/>
</svg>
