<svg width="128" height="60" viewBox="0 0 128 60" fill="none" xmlns="http://www.w3.org/2000/svg">
<path d="M14.5675 32.6927C15.7698 32.6688 16.9647 32.8867 18.0812 33.3334C19.1978 33.7801 20.2132 34.4466 21.0672 35.2932C22.7576 36.9881 23.7069 39.2841 23.7069 41.6779C23.7069 44.0716 22.7576 46.3677 21.0672 48.0626C20.2136 48.9098 19.1983 49.5767 18.0816 50.0235C16.965 50.4702 15.7699 50.6878 14.5675 50.6631H9.86281V59.4576H4.60254V32.6927H14.5675ZM14.5675 45.7316C16.8228 45.7316 18.4666 43.9727 18.4666 41.6779C18.4666 39.3831 16.8228 37.6242 14.5675 37.6242H9.86281V45.7316H14.5675Z" fill="#F26A21"/>
<path d="M40.1851 40.3397H45.1166V59.4575H40.1851V57.2055C38.6958 59.0794 36.6311 59.9967 33.9385 59.9967C32.6986 60.0097 31.4702 59.757 30.336 59.2557C29.2019 58.7544 28.1882 58.0161 27.3632 57.0904C25.6134 55.1123 24.6475 52.5626 24.6475 49.9216C24.6475 47.2807 25.6134 44.7309 27.3632 42.7528C29.1977 40.8033 31.3774 39.7939 33.9385 39.7939C36.6147 39.7939 38.6793 40.7112 40.1851 42.5852V40.3397ZM34.8722 55.292C35.5714 55.3143 36.2677 55.1933 36.9185 54.9367C37.5692 54.68 38.1606 54.293 38.6563 53.7994C39.1646 53.2888 39.5625 52.6793 39.8255 52.0085C40.0885 51.3378 40.2109 50.6202 40.1851 49.9002C40.2154 49.1837 40.095 48.4687 39.8317 47.8016C39.5683 47.1345 39.1679 46.53 38.6563 46.0274C38.1681 45.5213 37.5789 45.1236 36.927 44.8602C36.275 44.5968 35.5749 44.4736 34.8722 44.4986C34.169 44.474 33.4686 44.5974 32.8161 44.8607C32.1637 45.1241 31.5738 45.5215 31.0848 46.0274C30.5858 46.5377 30.1958 47.1442 29.9386 47.81C29.6814 48.4758 29.5625 49.187 29.5889 49.9002C29.5661 50.6165 29.6861 51.3301 29.9417 51.9995C30.1974 52.6689 30.5838 53.2808 31.0782 53.7994C31.5756 54.2936 32.1686 54.6809 32.8211 54.9375C33.4735 55.1942 34.1715 55.3148 34.8722 55.292Z" fill="#F26A21"/>
<path d="M54.5267 43.6275C55.444 41.1815 57.7355 39.9585 60.336 39.9585V45.4653C58.9176 45.2524 57.4709 45.5797 56.2823 46.3826C55.0988 47.1848 54.5267 48.4834 54.5267 50.3278V59.4642H49.5952V40.3399H54.5267V43.6275Z" fill="#F26A21"/>
<path d="M63.2021 59.4577V31.5618H68.1337V59.4741L63.2021 59.4577Z" fill="#F26A21"/>
<path d="M88.4385 41.9081C89.8161 43.3218 90.5032 45.2352 90.5032 47.7207V59.4577H85.5717V48.3289C85.5717 45.7678 84.0791 44.3837 81.7843 44.3837C79.2331 44.3837 77.5892 45.9618 77.5892 49.1344V59.4577H72.6577V40.3398H77.5892V42.4801C78.7761 40.6851 80.6862 39.804 83.2868 39.804C85.381 39.804 87.1005 40.4944 88.4385 41.9081Z" fill="#F26A21"/>
<path d="M98.8772 51.9256C99.5347 54.3355 101.323 55.519 104.269 55.519C106.143 55.519 107.596 54.8615 108.543 53.6089L112.521 55.9103C110.647 58.6226 107.856 60.0001 104.187 60.0001C101.011 60.0001 98.4893 59.0434 96.5758 57.1333C94.6624 55.2231 93.709 52.8133 93.709 49.9004C93.709 46.9875 94.6657 44.6237 96.5397 42.7103C98.4136 40.7968 100.86 39.804 103.802 39.804C106.593 39.804 108.928 40.7607 110.723 42.7103C112.518 44.6598 113.478 47.0303 113.478 49.9004C113.466 50.5793 113.402 51.2564 113.287 51.9256H98.8772ZM108.55 48.102C107.977 45.5015 106.064 44.239 103.809 44.239C101.179 44.239 99.3736 45.656 98.8016 48.102H108.55Z" fill="#F26A21"/>
<path d="M121.857 43.6275C122.774 41.1815 125.066 39.9585 127.666 39.9585V45.4653C126.249 45.2519 124.803 45.5794 123.616 46.3826C122.429 47.1848 121.857 48.4834 121.857 50.3278V59.4642H116.925V40.3399H121.857V43.6275Z" fill="#F26A21"/>
<path d="M13.8082 0.766034V3.81371C13.8082 4.01687 13.7275 4.21171 13.5839 4.35537C13.4402 4.49903 13.2454 4.57973 13.0422 4.57973H9.97151C9.76834 4.57973 9.5735 4.66044 9.42984 4.8041C9.28619 4.94775 9.20548 5.1426 9.20548 5.34576V20.663C9.20591 20.7642 9.18631 20.8644 9.1478 20.9579C9.1093 21.0515 9.05265 21.1365 8.98112 21.208C8.9096 21.2795 8.82462 21.3362 8.73108 21.3747C8.63755 21.4132 8.53731 21.4328 8.43616 21.4323H5.35562C5.15444 21.428 4.96296 21.3451 4.82222 21.2013C4.68149 21.0575 4.60269 20.8642 4.60274 20.663V5.34576C4.60274 5.24516 4.58293 5.14555 4.54443 5.05261C4.50593 4.95968 4.44951 4.87523 4.37838 4.8041C4.30724 4.73296 4.2228 4.67654 4.12986 4.63804C4.03692 4.59955 3.93731 4.57973 3.83671 4.57973H0.766027C0.665431 4.57973 0.56582 4.55992 0.472881 4.52142C0.379943 4.48293 0.295496 4.4265 0.224364 4.35537C0.153232 4.28424 0.0968068 4.19979 0.0583104 4.10685C0.0198139 4.01391 0 3.9143 0 3.81371L0 0.766034C0.000865242 0.563138 0.0818493 0.368798 0.22532 0.225327C0.368791 0.0818563 0.563131 0.000872298 0.766027 7.05574e-06H13.0389C13.1398 -0.000425877 13.2397 0.0190685 13.3331 0.0573711C13.4264 0.0956737 13.5112 0.15203 13.5827 0.223206C13.6542 0.294381 13.7109 0.378973 13.7496 0.472127C13.7883 0.565281 13.8082 0.665161 13.8082 0.766034Z" fill="#00836D"/>
<path d="M26.0772 8.43614V9.97148C26.0772 10.1741 25.997 10.3684 25.854 10.512C25.7111 10.6555 25.5171 10.7366 25.3145 10.7375H22.2405C22.0373 10.7375 21.8425 10.6568 21.6988 10.5131C21.5552 10.3695 21.4745 10.1746 21.4745 9.97148C21.4745 9.76888 21.3942 9.57454 21.2513 9.43097C21.1083 9.28741 20.9143 9.20632 20.7117 9.20545H19.1764C18.9732 9.20545 18.7784 9.28616 18.6347 9.42981C18.4911 9.57347 18.4104 9.76831 18.4104 9.97148V20.663C18.4108 20.7639 18.3913 20.8638 18.353 20.9571C18.3147 21.0505 18.2583 21.1353 18.1872 21.2068C18.116 21.2783 18.0314 21.335 17.9382 21.3737C17.8451 21.4124 17.7452 21.4323 17.6443 21.4323H14.5769C14.4758 21.4327 14.3756 21.4131 14.282 21.3746C14.1885 21.3361 14.1035 21.2795 14.032 21.2079C13.9605 21.1364 13.9038 21.0514 13.8653 20.9579C13.8268 20.8644 13.8072 20.7641 13.8076 20.663V6.90408C13.8072 6.80321 13.8267 6.70324 13.865 6.60992C13.9033 6.51661 13.9596 6.43177 14.0308 6.36029C14.102 6.28881 14.1866 6.23209 14.2797 6.19339C14.3729 6.15469 14.4728 6.13476 14.5737 6.13477H23.7791C24.3889 6.13564 24.9734 6.37849 25.4043 6.80998C25.8352 7.24148 26.0772 7.82634 26.0772 8.43614Z" fill="#00836D"/>
<path d="M55.9924 6.13477H52.9086C52.4855 6.13477 52.1426 6.47773 52.1426 6.90079V20.663C52.1426 21.086 52.4855 21.429 52.9086 21.429H55.9924C56.4155 21.429 56.7585 21.086 56.7585 20.663V6.90079C56.7585 6.47773 56.4155 6.13477 55.9924 6.13477Z" fill="#00836D"/>
<path d="M46.8059 6.13477H36.0585C35.855 6.13564 35.6602 6.21707 35.5166 6.36125C35.3731 6.50543 35.2925 6.70062 35.2925 6.90408V26.8241C35.2933 27.027 35.3743 27.2213 35.5178 27.3648C35.6613 27.5083 35.8556 27.5892 36.0585 27.5901H39.1226C39.3258 27.5901 39.5206 27.5094 39.6643 27.3657C39.8079 27.2221 39.8886 27.0272 39.8886 26.8241V22.2213C39.8886 22.0182 39.9694 21.8233 40.113 21.6797C40.2567 21.536 40.4515 21.4553 40.6547 21.4553H46.8092C47.4196 21.4553 48.0049 21.2128 48.4365 20.7813C48.8681 20.3497 49.1106 19.7643 49.1106 19.1539V8.43614C49.1106 8.13364 49.0509 7.83411 48.9351 7.55468C48.8192 7.27525 48.6494 7.0214 48.4353 6.80766C48.2213 6.59391 47.9672 6.42447 47.6876 6.309C47.408 6.19354 47.1084 6.13434 46.8059 6.13477ZM44.5045 17.6186C44.5045 17.7203 44.4843 17.821 44.445 17.9148C44.4057 18.0086 44.3481 18.0937 44.2755 18.165C44.203 18.2363 44.117 18.2924 44.0225 18.3301C43.9281 18.3679 43.8271 18.3864 43.7254 18.3846H40.6415C40.4384 18.3846 40.2435 18.3039 40.0999 18.1603C39.9562 18.0166 39.8755 17.8218 39.8755 17.6186V9.97148C39.8755 9.87005 39.8956 9.76963 39.9347 9.67604C39.9738 9.58245 40.0312 9.49756 40.1033 9.4263C40.1755 9.35504 40.2611 9.29882 40.3552 9.26091C40.4493 9.223 40.55 9.20415 40.6514 9.20545H43.7254C43.8262 9.20502 43.9262 9.22451 44.0195 9.26282C44.1128 9.30112 44.1977 9.35748 44.2691 9.42865C44.3406 9.49983 44.3973 9.58442 44.436 9.67757C44.4747 9.77073 44.4947 9.87061 44.4947 9.97148L44.5045 17.6186Z" fill="#00836D"/>
<path d="M31.4669 6.13477H28.3798C27.9567 6.13477 27.6138 6.47773 27.6138 6.90079V20.663C27.6138 21.086 27.9567 21.429 28.3798 21.429H31.4669C31.89 21.429 32.2329 21.086 32.2329 20.663V6.90079C32.2329 6.47773 31.89 6.13477 31.4669 6.13477Z" fill="#00836D"/>
<path d="M31.4669 0H28.3798C27.9567 0 27.6138 0.342962 27.6138 0.766027V2.27836C27.6138 2.70142 27.9567 3.04438 28.3798 3.04438H31.4669C31.89 3.04438 32.2329 2.70142 32.2329 2.27836V0.766027C32.2329 0.342962 31.89 0 31.4669 0Z" fill="#00836D"/>
<path d="M55.9924 0H52.9086C52.4855 0 52.1426 0.342962 52.1426 0.766027V2.27836C52.1426 2.70142 52.4855 3.04438 52.9086 3.04438H55.9924C56.4155 3.04438 56.7585 2.70142 56.7585 2.27836V0.766027C56.7585 0.342962 56.4155 0 55.9924 0Z" fill="#00836D"/>
<path d="M48.8936 33.6593L53.1675 27.2351C53.1675 27.2351 77.7297 36.1908 100.448 21.9321C99.0831 23.3951 79.1073 41.8587 48.8936 33.6593Z" fill="#F26A21"/>
</svg>
