<svg width="40" height="40" viewBox="0 0 40 40" fill="none" xmlns="http://www.w3.org/2000/svg">
<rect opacity="0.1" width="40" height="40" rx="20" fill="#FF1284"/>
<g clip-path="url(#clip0)">
<path d="M31.9999 22.251C32.0002 21.3208 31.7118 20.4134 31.1744 19.6541C30.6371 18.8949 29.8773 18.3211 28.9999 18.012V17.251C28.9999 14.864 28.0517 12.5748 26.3639 10.887C24.6761 9.19919 22.3869 8.25098 19.9999 8.25098C17.613 8.25098 15.3238 9.19919 13.636 10.887C11.9482 12.5748 10.9999 14.864 10.9999 17.251V18.012C10.1217 18.3216 9.36105 18.8961 8.82304 19.6562C8.28502 20.4164 7.99609 21.3247 7.99609 22.256C7.99609 23.1872 8.28502 24.0956 8.82304 24.8557C9.36105 25.6159 10.1217 26.1903 10.9999 26.5C11.2267 26.5801 11.4693 26.6046 11.7075 26.5713C11.9456 26.5381 12.1723 26.448 12.3683 26.3088C12.5644 26.1696 12.7241 25.9853 12.8341 25.7715C12.944 25.5576 13.0009 25.3204 12.9999 25.08V17.251C12.9999 16.3317 13.181 15.4215 13.5328 14.5722C13.8846 13.7229 14.4002 12.9512 15.0502 12.3012C15.7002 11.6512 16.4719 11.1356 17.3212 10.7838C18.1704 10.432 19.0807 10.251 19.9999 10.251C20.9192 10.251 21.8294 10.432 22.6787 10.7838C23.528 11.1356 24.2997 11.6512 24.9497 12.3012C25.5997 12.9512 26.1153 13.7229 26.4671 14.5722C26.8189 15.4215 26.9999 16.3317 26.9999 17.251V25.08C27.0021 25.288 27.0477 25.4934 27.1338 25.6828C27.2199 25.8722 27.3446 26.0416 27.4999 26.18V26.748C27.4999 28.222 26.2089 28.748 24.9999 28.748H23.2219C23.0018 28.3667 22.662 28.0687 22.2553 27.9002C21.8485 27.7317 21.3975 27.7022 20.9723 27.8161C20.547 27.9301 20.1712 28.1812 19.9032 28.5305C19.6352 28.8797 19.4899 29.3077 19.4899 29.748C19.4899 30.1882 19.6352 30.6162 19.9032 30.9655C20.1712 31.3148 20.547 31.5659 20.9723 31.6798C21.3975 31.7938 21.8485 31.7642 22.2553 31.5957C22.662 31.4273 23.0018 31.1293 23.2219 30.748H24.9999C27.6489 30.748 29.4999 29.103 29.4999 26.748V26.27C30.2488 25.8984 30.8794 25.3256 31.321 24.6157C31.7626 23.9058 31.9977 23.087 31.9999 22.251Z" fill="#FF1284"/>
</g>
<defs>
<clipPath id="clip0">
<rect width="24" height="24" fill="white" transform="translate(8 8)"/>
</clipPath>
</defs>
</svg>
