<svg width="72" height="72" viewBox="0 0 72 72" fill="none" xmlns="http://www.w3.org/2000/svg">
<path d="M0.535156 11.3419C0.535156 5.02236 5.70369 -0.0900624 12.0442 0.00120322C18.186 0.0895157 23.18 5.12642 23.2188 11.2686C23.2406 14.7085 21.7306 17.7956 19.3312 19.8897C19.078 20.1106 19.1145 20.5139 19.4038 20.685L21.5409 21.9495C21.8864 22.154 21.7414 22.6836 21.3399 22.6836L11.6624 22.6812C5.49753 22.5666 0.535156 17.534 0.535156 11.3419Z" fill="#69D8FC"/>
<path d="M21.5391 21.9496L19.4019 20.6851C19.1142 20.5149 19.0742 20.1122 19.3261 19.8925C21.7528 17.7763 23.2708 14.6441 23.2158 11.1586C23.1206 5.12958 18.2409 0.180566 12.2136 0.00492558C11.3588 -0.019965 10.5247 0.0499256 9.7207 0.204472C14.9304 1.20319 18.9008 5.7953 18.9354 11.2686C18.9522 13.9192 18.0593 16.3605 16.551 18.2993C15.6402 19.47 15.9362 21.1676 17.2128 21.923L17.2575 21.9495C17.5992 22.1517 17.4606 22.6711 17.0692 22.6824L21.338 22.6834C21.7395 22.6837 21.8846 22.1539 21.5391 21.9496Z" fill="#4BCBF5"/>
<path d="M55.7987 41.1687H30.0691C23.6428 41.1687 20.1261 33.6796 24.2305 28.7346L24.4587 28.4595C26.2669 26.2811 27.2566 23.5391 27.2566 20.708V15.7463C27.2568 7.04981 34.3066 0 43.0031 0C51.6996 0 58.7494 7.04981 58.7494 15.7463V20.8755C58.7494 23.7362 59.76 26.505 61.6027 28.6933C65.7583 33.6281 62.2503 41.1687 55.7987 41.1687Z" fill="#718096"/>
<path d="M69.3243 53.9199V70.9299H16.5449V54.0478C16.5449 50.2256 18.8357 46.7761 22.357 45.2939L30.8774 41.5899L33.7462 40.3425C35.923 39.3961 37.3307 37.2488 37.3307 34.875V33.7739H48.5371V34.8188C48.5371 37.2024 49.9588 39.3581 52.1512 40.2975L63.6754 45.2377C67.1094 46.7592 69.3243 50.1624 69.3243 53.9199Z" fill="white"/>
<path d="M30.8787 45.6457C33.7867 46.5146 38.0669 47.4414 43.2842 47.3501C48.1795 47.2646 52.198 46.3127 54.9942 45.4196L56.3836 42.1111L52.1527 40.2977C49.961 39.3582 48.5398 37.2031 48.5398 34.8184V33.7744H37.3334V34.8752C37.3334 37.2487 35.9255 39.3959 33.749 40.3423L30.3223 41.8322L30.8787 45.6457Z" fill="#FFCEBF"/>
<path d="M63.6748 45.2369L54.9937 41.5161L54.9922 41.5163V70.9295H69.3244V53.9199C69.3244 50.1629 67.1097 46.759 63.6748 45.2369Z" fill="#FE85BF"/>
<path d="M30.8774 41.5898V70.9298H16.5449V54.0478C16.5449 50.2256 18.8357 46.7761 22.3569 45.2939L30.8774 41.5898Z" fill="#FE85BF"/>
<path d="M46.8204 39.9252C48.1096 39.9252 49.3381 39.6663 50.4579 39.1992C49.2567 38.0903 48.539 36.5125 48.539 34.8184V33.7744H37.3325V34.8751C37.3325 35.7325 37.1479 36.5601 36.8105 37.3124C38.5075 38.93 40.8032 39.9251 43.3326 39.9251H46.8204V39.9252Z" fill="#FFB09E"/>
<path d="M54.1353 16.9162V26.1869C54.1353 31.4097 49.9013 35.6435 44.6786 35.6435H41.191C35.9682 35.6435 31.7344 31.4096 31.7344 26.1869V16.9162C31.7344 13.5186 34.4887 10.7642 37.8864 10.7642H47.9833C51.381 10.7643 54.1353 13.5186 54.1353 16.9162Z" fill="#FFCEBF"/>
<path d="M54.1361 21.7397C54.1319 21.7525 54.1267 21.7649 54.1229 21.778C53.781 22.9585 52.8839 25.1886 50.7157 26.8605C49.7062 27.6391 48.5546 28.2016 47.2932 28.5326C46.7214 28.6827 46.3794 29.2678 46.5294 29.8396C46.6557 30.3204 47.0893 30.6386 47.5642 30.6386C47.654 30.6386 47.7454 30.6272 47.8366 30.6033C49.3767 30.1992 50.7852 29.5103 52.0231 28.5558C52.878 27.8966 53.5698 27.1684 54.1299 26.4363C54.132 26.3534 54.1363 26.2708 54.1363 26.1873V21.7397H54.1361Z" fill="#7A6D79"/>
<path d="M46.1206 31.4911H43.6122C42.4705 31.4911 41.5449 30.5655 41.5449 29.4238C41.5449 28.282 42.4705 27.3564 43.6122 27.3564H46.1206C47.2623 27.3564 48.1879 28.282 48.1879 29.4238C48.1878 30.5656 47.2623 31.4911 46.1206 31.4911Z" fill="#685E68"/>
<path d="M45.1704 8.31046C45.4106 5.2814 48.3105 3.27117 51.086 2.22998C55.6773 4.98103 58.7511 10.0043 58.7511 15.7462V16.8287C58.4973 16.882 58.2447 16.9287 57.9949 16.9659C56.4659 17.1943 55.1639 17.0954 54.2743 16.9659C48.542 16.2023 44.8803 11.9688 45.1704 8.31046Z" fill="#4A5568"/>
<path d="M43.004 0C46.5601 0 49.8406 1.17928 52.4767 3.16758C51.1617 5.45569 48.1422 9.97959 42.4802 13.3287C38.2769 15.8151 34.3135 16.6506 31.8728 16.966H27.2578V15.7462C27.2577 7.04981 34.3075 0 43.004 0V0Z" fill="#718096"/>
<path d="M60.6053 70.9295H26.3415L24.4516 53.1018C24.3176 51.8373 25.3089 50.7354 26.5804 50.7354H60.3665C61.6381 50.7354 62.6293 51.8373 62.4953 53.1018L60.6053 70.9295Z" fill="#E2E8F0"/>
<path d="M60.3655 50.7354H56.084C57.3555 50.7354 58.3468 51.8373 58.2128 53.1018L56.3229 70.9297H60.6044L62.4942 53.1018C62.6284 51.8373 61.6371 50.7354 60.3655 50.7354Z" fill="#D2DBE6"/>
<path d="M70.9453 72H1.05469C0.472078 72 0 71.5278 0 70.9453C0 70.3628 0.472078 69.8906 1.05469 69.8906H70.9453C71.5279 69.8906 72 70.3628 72 70.9453C72 71.5278 71.5279 72 70.9453 72Z" fill="#CBD5E0"/>
<path d="M43.4736 63.8294C45.1288 63.8294 46.4706 62.4876 46.4706 60.8325C46.4706 59.1773 45.1288 57.8354 43.4736 57.8354C41.8184 57.8354 40.4766 59.1773 40.4766 60.8325C40.4766 62.4876 41.8184 63.8294 43.4736 63.8294Z" fill="#D2DBE5"/>
<path d="M7.59569 12.4121C8.1868 12.4121 8.66599 11.9329 8.66599 11.3418C8.66599 10.7507 8.1868 10.2715 7.59569 10.2715C7.00458 10.2715 6.52539 10.7507 6.52539 11.3418C6.52539 11.9329 7.00458 12.4121 7.59569 12.4121Z" fill="white"/>
<path d="M11.8769 12.4121C12.468 12.4121 12.9472 11.9329 12.9472 11.3418C12.9472 10.7507 12.468 10.2715 11.8769 10.2715C11.2858 10.2715 10.8066 10.7507 10.8066 11.3418C10.8066 11.9329 11.2858 12.4121 11.8769 12.4121Z" fill="white"/>
<path d="M16.1582 12.4121C16.7493 12.4121 17.2285 11.9329 17.2285 11.3418C17.2285 10.7507 16.7493 10.2715 16.1582 10.2715C15.5671 10.2715 15.0879 10.7507 15.0879 11.3418C15.0879 11.9329 15.5671 12.4121 16.1582 12.4121Z" fill="white"/>
</svg>
